PathFileType	4	(X/Y/Z)	 s02c0203.trc
DataRate	CameraRate	NumFrames	NumMarkers	Units	OrigDataRate	OrigDataStartFrame	OrigNumFrames
200	200	4	51	mm	200	1251	2000
Frame#	Time	racr			lacr			c7			jug			rlel			rdr			llel			ldr			s2			lic			ric			lasi			rasi			rpsi			lpsi			rgt			lgt			rth1			rth2			rth3			rth4			rlfc			rmfc			rsh1			rsh2			rsh3			rsh4			rlmal			rmmal			rcal			rtoe			rmt5			rmt1			lth1			lth2			lth4			lth3			llfc			lmfc			lsh1			lsh2			lsh3			lsh4			llmal			lmmal			lcal			ltoe			lmt5			SBIKE			LBIKE			RBIKE			
		X1	Y1	Z1	X2	Y2	Z2	X3	Y3	Z3	X4	Y4	Z4	X5	Y5	Z5	X6	Y6	Z6	X7	Y7	Z7	X8	Y8	Z8	X9	Y9	Z9	X10	Y10	Z10	X11	Y11	Z11	X12	Y12	Z12	X13	Y13	Z13	X14	Y14	Z14	X15	Y15	Z15	X16	Y16	Z16	X17	Y17	Z17	X18	Y18	Z18	X19	Y19	Z19	X20	Y20	Z20	X21	Y21	Z21	X22	Y22	Z22	X23	Y23	Z23	X24	Y24	Z24	X25	Y25	Z25	X26	Y26	Z26	X27	Y27	Z27	X28	Y28	Z28	X29	Y29	Z29	X30	Y30	Z30	X31	Y31	Z31	X32	Y32	Z32	X33	Y33	Z33	X34	Y34	Z34	X35	Y35	Z35	X36	Y36	Z36	X37	Y37	Z37	X38	Y38	Z38	X39	Y39	Z39	X40	Y40	Z40	X41	Y41	Z41	X42	Y42	Z42	X43	Y43	Z43	X44	Y44	Z44	X45	Y45	Z45	X46	Y46	Z46	X47	Y47	Z47	X48	Y48	Z48	X49	Y49	Z49	X50	Y50	Z50	X51	Y51	Z51	
1251	6.2550	519.832176	1216.267043	-102.474374	582.807745	1177.870831	-420.408971	541.325130	1248.401628	-261.939134	462.904135	1129.471789	-261.052370	531.620035	980.081197	8.242157	693.388424	889.200609	-92.787223	534.814158	997.009503	-629.356288	689.259207	884.147735	-528.179580	15.991244	1120.725467	-349.234752	148.757255	1099.307508	-480.683353	121.528760	1120.850668	-187.936452	186.106242	1063.826541	-447.192706	175.694476	1105.709380	-219.750708	28.220301	1154.053802	-314.015064	43.735886	1156.067070	-397.289265	106.493998	1042.910634	-151.797067	104.979984	1004.890103	-508.925996	194.867836	1004.285761	-138.713872	277.721158	974.074005	-137.352748	334.326200	916.459359	-108.876404	296.467019	996.027856	-162.455426	431.699389	803.562295	-135.545552	432.795980	784.076297	-244.283683	424.641548	691.056049	-117.385907	426.700320	602.842135	-135.417576	389.128240	526.029494	-133.714163	443.721550	602.209002	-171.833395	352.690485	411.112063	-141.681718	360.660925	434.198279	-221.360856	280.227082	360.831710	-184.790636	566.744279	360.167260	-184.426444	458.794923	339.356302	-123.436513	484.438674	360.722750	-229.761128	225.602591	928.687374	-511.984317	302.457058	888.226934	-506.315314	322.984155	911.363412	-486.722307	348.655651	811.907201	-507.094238	408.768266	732.467239	-484.166335	403.226642	701.395386	-379.705395	349.026535	646.702452	-502.778136	302.747481	575.569090	-486.365863	223.674808	532.035388	-491.599501	316.986877	564.365481	-449.240531	136.498261	471.880571	-479.916318	148.773952	457.476637	-403.340757	57.092657	478.700597	-439.594248	233.272643	251.988132	-435.522662	148.281422	315.549204	-500.204545	-126.303933	871.629725	-309.167751	37.312979	86.363519	-514.241212	33.516688	83.500278	-114.402988	
1252	6.2600	520.386575	1215.698058	-102.879471	582.976847	1177.301365	-421.656777	541.583368	1247.956022	-262.932627	463.406386	1128.867033	-261.875516	531.414764	979.470392	7.757140	693.466431	888.942378	-92.934341	534.332587	996.100304	-629.767056	689.344753	883.736409	-528.127934	16.567107	1119.177660	-349.046479	148.520609	1098.443398	-480.378059	122.026893	1119.955018	-187.471816	185.941775	1063.142665	-446.722721	176.422532	1104.723286	-219.077602	28.976302	1151.855200	-313.264202	43.319324	1154.940881	-395.654031	106.604000	1041.430161	-151.298327	105.589309	1004.510788	-508.816304	194.736461	1001.155650	-138.496884	276.877570	969.187499	-137.353386	332.225977	910.113822	-109.174414	296.159903	990.908492	-162.222438	427.579175	795.806363	-136.159320	428.115736	775.750958	-244.807306	422.064522	683.140691	-118.077337	425.345482	594.653759	-135.486936	389.107466	517.371535	-133.424747	441.928424	594.414128	-172.081686	354.023601	401.433435	-141.009719	363.527517	425.313592	-222.708182	281.211224	351.936566	-184.233613	567.762066	347.974958	-184.864665	459.738148	328.416771	-123.512301	485.306240	349.476269	-230.223903	227.097762	930.524954	-511.698149	304.831433	891.916529	-505.705820	324.543180	915.359617	-485.641810	352.848133	816.831272	-506.665967	414.461113	738.383505	-483.948643	408.718090	707.346709	-379.030659	353.942278	653.441119	-502.288023	306.388433	583.110155	-485.743595	226.644731	540.901061	-491.137565	320.438016	571.711299	-448.614547	138.397018	482.630590	-479.535552	150.546663	468.027949	-402.996749	58.956587	490.271642	-439.368685	232.803653	261.801109	-435.449527	148.571751	326.363702	-500.049555	-126.301427	871.643076	-309.170617	37.305369	86.359620	-514.235192	33.526620	83.489325	-114.412783	
1253	6.2650	521.093942	1215.255138	-103.391453	583.116816	1176.823642	-423.223190	541.924188	1247.665130	-264.134131	463.925770	1128.461064	-262.876017	531.429431	978.776662	7.296528	693.516443	888.646509	-93.007558	534.511530	995.111095	-630.496131	689.382157	883.203986	-528.182394	16.781757	1117.913926	-348.265817	148.250996	1097.695425	-479.881774	122.628987	1118.897866	-186.829976	185.789540	1062.623088	-446.145119	177.059715	1103.941461	-218.350624	29.655826	1149.409825	-312.205995	43.696138	1153.143201	-394.825610	106.838986	1039.791379	-150.772967	106.146363	1004.197984	-508.468007	194.715823	997.962424	-138.192498	276.513804	964.342002	-137.119380	330.241089	903.702805	-109.388686	295.834887	985.922356	-161.524344	423.542671	788.019374	-136.023385	423.519324	767.297059	-245.547390	418.851004	674.892143	-118.594085	423.643245	586.537543	-135.678578	388.700386	508.632564	-133.032160	439.755069	586.829111	-171.812052	354.701174	391.892979	-140.251176	363.822265	415.817674	-221.923600	281.603856	343.297686	-183.388305	568.205735	335.840238	-185.125370	460.099248	317.657463	-123.492108	485.599676	338.455273	-229.933753	228.365781	932.608817	-511.388003	307.055169	895.852715	-505.273031	326.052157	919.607430	-484.795090	356.885226	821.928605	-506.461309	419.762571	745.006356	-483.262342	414.858707	713.914099	-378.129453	358.811544	660.443249	-501.806343	310.125453	590.952118	-485.189887	229.743553	549.903477	-490.625654	323.924935	579.393424	-448.056181	140.526132	493.278805	-479.119110	152.501706	478.552645	-402.655085	61.258630	501.613202	-438.855130	233.077195	271.806249	-435.451584	149.384182	337.130053	-499.872358	-126.293592	871.584799	-309.128507	37.302928	86.364283	-514.243134	33.513987	83.485785	-114.409519	
1254	6.2700	521.945561	1214.892379	-103.975553	583.315043	1176.362933	-424.999506	542.372356	1247.532046	-265.571930	464.530238	1128.228059	-264.119786	531.438181	978.326917	6.903976	693.476750	888.404024	-93.008730	534.831802	993.957627	-631.257340	689.339059	882.604595	-528.224684	16.844036	1116.512778	-347.106729	147.765452	1097.142708	-479.321776	123.221402	1117.982719	-186.021812	185.574919	1062.249854	-445.520998	177.828861	1102.955740	-217.532433	30.355880	1147.146850	-311.015657	44.492011	1151.725778	-394.265754	107.092523	1038.009835	-150.157390	106.616559	1004.126174	-507.971462	194.750356	994.572720	-137.882947	276.185042	959.134775	-137.364375	328.126179	897.120095	-109.483009	295.613242	980.515538	-160.989250	418.915635	779.852952	-136.615189	418.507460	758.998888	-245.740244	415.221233	666.563806	-119.022242	422.864978	578.629332	-135.198730	387.483830	499.979625	-132.675386	437.015683	579.183307	-171.649666	354.814994	382.618493	-139.407192	363.606270	406.428836	-221.050190	281.410459	334.845713	-182.308221	567.888471	323.580383	-185.507790	459.800326	306.800306	-123.497217	485.088512	327.467585	-229.872129	229.463655	934.865279	-511.042571	309.031298	900.018740	-504.954158	327.356360	924.131467	-484.066905	360.593579	827.291597	-506.198877	424.938565	751.784438	-482.987849	421.256383	720.978904	-377.136694	363.577311	667.756073	-501.303482	313.862071	599.017039	-484.645575	232.921998	559.077452	-490.083120	327.457786	587.250668	-447.391526	142.865209	503.998464	-478.674072	154.406240	488.875922	-402.381978	63.424310	512.837916	-438.552271	234.158638	282.209470	-435.464914	150.796450	348.026646	-499.742149	-126.343581	871.624452	-309.087847	37.300600	86.350293	-514.270061	33.524959	83.465527	-114.408971	
